<svg width="186" height="72" viewBox="0 0 186 72" fill="none" xmlns="http://www.w3.org/2000/svg">
<path d="M53.8232 0.210449C53.0681 0.517235 51.6993 1.88597 51.015 2.99511C50.071 4.52903 48.3955 7.95086 47.8999 9.41399C47.3571 10.9715 45.0917 13.3786 41.1978 16.5172C34.4486 21.945 29.894 24.7296 22.0592 28.2458C20.0533 29.1662 17.7406 30.2045 16.8911 30.5821C16.0415 30.9833 14.6256 31.5733 13.7052 31.9273C12.0533 32.588 11.2509 33.1072 11.5105 33.3904C11.6049 33.4612 13.2096 33.0836 15.1212 32.5408C25.4338 29.6382 34.1182 25.7208 40.8439 20.9774C43.4869 19.0895 45.2096 18.2163 45.2096 18.7355C45.2096 18.8063 45.0681 19.8919 44.8793 21.1662C44.6905 22.4169 44.4781 24.0925 44.3837 24.8712C43.5813 32.942 40.7731 38.3697 35.4161 42.3343C29.4692 46.7001 21.1861 49.0836 11.8173 49.0836C7.68753 49.06 6.2716 48.8004 4.61968 47.6677C2.75537 46.4169 2.40139 44.9302 3.60493 43.4435C5.28045 41.3432 8.72587 40.1868 13.0681 40.2812C17.0091 40.352 19.5341 40.8948 22.484 42.3107L23.6167 42.8771L24.7967 42.3343C25.4338 42.0276 26.4958 41.5556 27.133 41.2724C27.7465 40.9892 28.1713 40.6824 28.0769 40.5644C27.6049 40.1632 23.6875 38.6765 21.7288 38.1809C19.9117 37.709 19.0386 37.6382 15.5931 37.6382C12.0061 37.6382 11.3217 37.709 9.22145 38.2753C4.33649 39.5733 1.45744 41.5792 0.395491 44.4346C-0.123683 45.827 -0.123683 45.827 0.348293 46.7945C1.22145 48.6352 2.07101 49.296 4.83207 50.2635C6.97956 51.0187 13.186 51.3255 16.8911 50.8771C18.6138 50.6647 23.8763 49.5084 25.8586 48.9184C28.7377 48.0688 32.7967 46.2753 35.015 44.883C35.6993 44.4582 36.3129 44.1042 36.3601 44.1042C36.6433 44.1042 39.5459 41.7444 40.7495 40.5408C44.5253 36.765 45.9412 33.2252 46.7436 25.6972C47.1919 21.3078 47.7111 18.6411 48.3955 17.0836C48.6787 16.4228 49.8114 14.8653 50.897 13.5674C53.54 10.4523 54.2244 9.55558 55.1919 7.83287C57.2214 4.24585 57.7406 1.03641 56.4427 0.163254C56.0887 -0.0727348 54.4132 -0.0491371 53.8232 0.210449Z" fill="#FDFEFB"/>
<path d="M135.475 18.0275C131.062 21.7797 131.676 21.4965 127.57 21.8033C126.72 21.8505 123.865 22.0629 121.198 22.2753C118.531 22.4641 115.888 22.6528 115.322 22.7C114.401 22.7472 114.189 22.8652 113.811 23.526C113.552 23.9508 113.41 24.352 113.481 24.4228C113.575 24.5172 118.838 24.2576 123.204 23.9036C128.136 23.526 129.741 23.4552 129.835 23.5968C129.882 23.6912 127.994 25.2959 125.634 27.1602C123.251 29.0009 121.151 30.6528 120.962 30.818C118.413 32.8947 111.9 37.7325 111.64 37.7325C111.546 37.7325 111.05 38.0393 110.508 38.4169C108.431 39.8328 102.791 43.0422 100.242 44.2694C95.5695 46.4641 91.9589 47.1956 89.8822 46.3461C88.7495 45.8741 88.2303 45.2369 88.0651 44.0334C87.8763 42.759 88.1595 41.8151 89.2922 39.88C89.8114 39.0304 90.4014 37.8033 90.6374 37.1661C91.0621 36.057 91.0621 36.0098 90.661 35.703C90.307 35.4434 90.0474 35.4906 89.0091 36.0334C88.3483 36.3874 87.2155 36.9537 86.5076 37.2605C85.7996 37.5909 84.1713 38.4169 82.897 39.1012C80.5843 40.352 79.9235 40.5171 80.6787 39.6676C81.0563 39.2428 81.0563 39.1956 80.6315 38.818C80.1831 38.3933 80.0651 38.4405 77.3984 39.8564C72.7495 42.3107 69.2804 43.467 65.7406 43.7502C63.5459 43.9154 62.8144 43.6322 62.72 42.4994C62.6492 41.8151 62.8144 41.5555 64.0651 40.3756C65.3394 39.1956 65.9058 38.2045 65.2922 38.2045C65.1507 38.2045 62.8616 39.5496 60.1477 41.2015C53.304 45.3549 52.1477 45.9449 50.0002 46.3697C47.8763 46.7708 47.2391 46.6764 46.7436 45.8977C46.248 45.1425 46.5784 44.3638 47.8527 43.3254C50.543 41.1307 54.9796 39.1956 61.5636 37.4021C63.7111 36.8121 65.5518 36.3166 65.6226 36.3166C65.8822 36.3166 65.717 35.6086 65.4574 35.585C63.4987 35.3962 58.0474 36.5997 54.0356 38.1101C48.0887 40.3284 43.4633 43.1602 42.5194 45.1425C41.9766 46.2989 42.0474 46.9596 42.8262 47.8092C44.6905 49.8623 50.189 49.7443 54.2952 47.5496C55.5223 46.9124 55.7583 46.7708 57.363 45.7325C57.8822 45.4021 58.425 45.0481 58.5666 44.9773C58.7082 44.8829 59.0858 45.0481 59.3925 45.3077C60.5017 46.2989 61.4928 46.5584 63.8999 46.5348C66.7554 46.4876 71.2391 45.4021 73.5754 44.1986C75.2509 43.3254 74.071 44.8357 70.8852 47.5732C69.776 48.5407 69.776 48.5407 70.248 48.9655C70.72 49.3903 70.7672 49.3903 71.5931 48.9183C72.0651 48.6351 73.3158 47.9744 74.3542 47.408C76.1241 46.4405 78.6492 45.0481 80.2539 44.1042C80.6551 43.8682 81.599 43.3254 82.4014 42.877C83.1801 42.4287 84.2421 41.7679 84.7613 41.4139C85.2568 41.0835 85.7524 40.8003 85.8468 40.8003C85.9412 40.8003 85.7524 41.4139 85.422 42.1455C84.5725 44.0334 84.4309 46.3225 85.0681 47.3372C87.0032 50.4287 94.2244 49.6027 102.649 45.3785C104.584 44.3874 106.708 43.2546 107.369 42.8534C108.03 42.4287 109.257 41.7207 110.106 41.2959C110.956 40.8475 112.584 39.9272 113.741 39.2192C114.897 38.5348 115.865 37.9685 115.912 37.9685C115.959 37.9685 115.511 38.6528 114.944 39.4788C113.316 41.7679 112.372 43.9862 112.277 45.6617C112.183 46.9832 112.23 47.172 112.867 47.88C113.693 48.8003 114.826 49.0599 116.714 48.7531C118.39 48.4935 119.546 47.9744 122.543 46.0865C123.912 45.2369 125.162 44.5997 125.328 44.6705C125.516 44.7413 125.776 45.2133 125.918 45.7325C126.696 48.6823 129.505 49.3667 133.162 47.526C135.499 46.3225 136.891 45.0245 138.803 42.2635C139.676 41.0127 140.478 39.9272 140.572 39.8328C140.69 39.762 141.705 39.7384 142.838 39.762C144.891 39.8328 149.21 39.2664 152.23 38.5584C153.103 38.3697 153.906 38.2517 154.024 38.3461C154.567 38.6764 154.118 39.5968 152.679 41.1307C150.72 43.2074 150.036 44.3874 149.847 46.0393C149.705 47.3608 149.705 47.408 150.484 48.1868C151.168 48.8475 151.522 49.0127 152.726 49.1543C154.354 49.3431 155.416 49.2251 158.106 48.5407C160.159 48.0452 161.882 47.2428 164.454 45.5909C165.988 44.5997 166.154 44.5525 166.39 44.9301C167.452 46.7708 168.867 47.5024 172.242 48.0216C175.192 48.4699 180.266 48.352 182.696 47.7856L184.395 47.3844L184.867 45.9213C185.127 45.1189 185.316 44.4346 185.292 44.3874C185.245 44.3638 184.584 44.6469 183.829 45.0245C181.186 46.3225 179.935 46.582 176.065 46.5584C170.873 46.5348 168.631 45.8977 168.631 44.411C168.631 43.6558 169.623 41.6499 170.519 40.6351C170.921 40.1868 171.227 39.7384 171.227 39.6204C171.227 39.1484 170.331 39.408 169.434 40.1632C167.994 41.3667 164.596 43.939 163.534 44.6233C160.395 46.6528 156.69 47.8328 154.567 47.4788C153.528 47.3136 151.876 45.8269 151.876 45.0717C151.876 44.0334 152.962 42.3343 154.968 40.2576C156.596 38.5584 157.021 37.9921 156.926 37.6145C156.714 36.9301 156.171 35.8918 155.935 35.7502C155.841 35.6794 154.614 35.939 153.221 36.3166C149.894 37.2133 146.685 37.5909 143.735 37.4493C141.021 37.3077 140.101 36.9773 138.897 35.7266C137.977 34.7826 137.363 34.7118 135.924 35.349C135.05 35.7502 129.552 39.3608 124.738 42.7118C119.971 46.0157 116.195 47.4552 115.133 46.3933C114.331 45.5909 114.637 43.6322 115.888 41.7915C116.407 41.0363 121.528 35.6558 129.693 27.2546C131.581 25.3195 133.257 23.6204 133.398 23.4552C133.682 23.1484 134.602 23.0304 138.543 22.7472C139.581 22.6764 140.974 22.5584 141.611 22.5113C142.909 22.3933 149.257 21.8741 156.266 21.3313C158.744 21.1425 161.575 20.9301 162.519 20.8593C164.738 20.6705 165.328 20.5525 165.328 20.2694C165.328 20.1278 164.832 20.0806 164.218 20.1514C163.581 20.1986 161.505 20.3166 159.546 20.3874C155.723 20.529 148.124 20.9065 145.269 21.0953C144.301 21.1425 141.752 21.2841 139.605 21.3549L135.735 21.5201L137.953 19.231C139.18 17.9567 140.218 16.8475 140.266 16.7295C140.384 16.4228 139.841 14.6056 139.652 14.6292C139.558 14.6292 137.693 16.1632 135.475 18.0275ZM135.853 38.4876C136.089 39.054 136.466 39.3608 137.245 39.644C138.543 40.1396 138.543 40.3992 137.103 42.2163C134.437 45.6145 130.637 47.526 128.867 46.3697C128.159 45.8977 128.136 45.4729 128.726 44.2222C129.434 42.7118 134.413 37.7797 135.263 37.7325C135.404 37.7325 135.664 38.0865 135.853 38.4876Z" fill="#FDFEFB"/>
<path d="M65.2922 63.5025C65.6226 63.8329 66.4721 65.6264 67.3689 67.8683C68.1949 69.9922 68.95 71.7149 69.0208 71.7149C69.0916 71.7149 69.6816 70.2753 70.3188 68.529C70.9559 66.7591 71.4987 65.3668 71.5459 65.414C71.5931 65.4376 72.1595 66.9007 72.8202 68.647C73.481 70.3933 74.0474 71.8329 74.0946 71.8801C74.1182 71.9273 74.8261 70.2517 75.6521 68.1515C76.6904 65.532 77.3748 64.1396 77.8704 63.6677L78.5783 62.9833H76.9264C75.3925 63.0069 75.3217 63.0305 75.9117 63.3373C76.2657 63.5261 76.596 63.8565 76.6904 64.0453C76.7612 64.2576 76.36 65.6264 75.7937 67.0659C74.7789 69.6618 74.7553 69.6854 74.4957 69.001C74.3306 68.5998 73.7878 67.1603 73.245 65.7444C72.7022 64.352 72.2067 63.2193 72.1123 63.2193C72.0415 63.2193 71.4515 64.6588 70.8143 66.4051C70.2008 68.1751 69.6108 69.5202 69.5164 69.4258C69.1624 69.0246 67.3925 63.8801 67.5341 63.6677C67.6049 63.5261 67.9117 63.3373 68.1949 63.2193C68.5252 63.0777 68.0769 63.0069 66.7081 63.0069L64.7258 62.9833L65.2922 63.5025Z" fill="#FDFEFB"/>
<path d="M82.3541 63.5733C82.9441 64.1396 82.9677 64.2104 82.9677 67.0895C82.9677 70.1573 82.7553 71.2429 82.1418 71.2429C81.953 71.2429 81.7878 71.3373 81.7878 71.4553C81.7878 71.5733 82.6609 71.6677 83.7229 71.6677L85.658 71.6441L85.0208 71.1957L84.3837 70.7237V67.3963C84.3837 65.5556 84.478 63.9273 84.5724 63.7857C84.6668 63.6441 84.95 63.4081 85.2096 63.2665C85.5872 63.0541 85.304 63.0069 83.6993 62.9833H81.717L82.3541 63.5733Z" fill="#FDFEFB"/>
<path d="M89.7171 63.6205L90.425 64.2813L90.2834 67.4199C90.1654 70.3226 90.1182 70.6058 89.6463 71.007C89.3395 71.243 89.1035 71.4789 89.1035 71.5497C89.1035 71.6205 89.7879 71.6677 90.6374 71.6441C91.487 71.6441 92.1713 71.5497 92.1713 71.4317C92.1713 71.3373 92.0297 71.243 91.8409 71.243C91.1094 71.243 90.8734 70.4878 90.7554 67.5379C90.6846 65.9568 90.7082 64.6589 90.779 64.6825C90.8498 64.7297 92.3837 66.3344 94.2008 68.2695L97.481 71.8093L97.599 67.8447C97.717 63.9745 97.717 63.8801 98.307 63.4553L98.897 62.9834L97.3631 63.007C95.8763 63.007 95.8527 63.007 96.4663 63.3609C97.2923 63.8093 97.3867 64.2341 97.3159 67.0896L97.2451 69.4258L94.2952 66.2164L91.3454 63.007L90.1654 62.9834H89.0091L89.7171 63.6205Z" fill="#FDFEFB"/>
<path d="M102.743 63.408C103.192 63.762 103.31 64.116 103.428 65.8387C103.617 68.7414 103.357 71.0305 102.767 71.172C101.54 71.5024 102.673 71.6676 105.929 71.6204L109.516 71.5968L109.894 70.4169C110.106 69.7561 110.248 69.2133 110.224 69.1661C110.201 69.1425 109.729 69.5437 109.186 70.0629C108.242 70.9597 108.053 71.4316 108.974 70.6057C109.398 70.2281 109.564 70.4169 109.21 70.9125C108.974 71.2664 105.646 71.3136 105.245 70.9833C105.009 70.7945 104.915 70.1337 104.915 68.8594C104.915 67.0659 104.938 66.9951 105.457 67.0187C106.496 67.0659 107.156 67.3726 107.44 67.939C107.699 68.4582 107.746 68.3638 107.723 66.9951C107.723 66.1455 107.652 65.6263 107.581 65.8151C107.369 66.4287 106.732 66.7591 105.811 66.7591H104.915V65.2251C104.915 63.9744 104.985 63.6676 105.363 63.4552C106.566 62.8181 108.761 63.5732 109.068 64.7532C109.328 65.7443 109.54 65.4139 109.398 64.2104L109.28 63.1012L105.741 63.054C102.319 62.9833 102.224 63.0069 102.743 63.408Z" fill="#FDFEFB"/>
<path d="M114.566 63.3137C114.236 63.5261 113.811 63.9981 113.646 64.3993C113.387 65.0364 113.387 65.2724 113.741 65.9568C114.047 66.6175 114.448 66.9479 115.652 67.4907C116.502 67.8683 117.398 68.3875 117.658 68.647C118.696 69.6854 117.918 71.4789 116.478 71.4789C115.392 71.4789 114.519 70.9361 113.906 69.827C113.623 69.2842 113.339 68.883 113.316 68.9302C113.292 68.9774 113.292 69.4966 113.363 70.1102L113.457 71.2193L114.779 71.5969C116.478 72.0925 117.516 71.9037 118.531 70.8889C119.121 70.299 119.31 69.8978 119.31 69.2606C119.31 67.9627 118.791 67.4199 116.69 66.4052C114.802 65.5084 114.26 64.942 114.543 64.1633C114.732 63.5733 115.345 63.2193 116.124 63.2193C117.044 63.2193 117.823 63.7621 118.248 64.706L118.602 65.4612L118.46 64.3993C118.366 63.8093 118.295 63.3137 118.248 63.2665C118.224 63.2429 117.516 63.1485 116.69 63.0777C115.605 63.0069 115.015 63.0777 114.566 63.3137Z" fill="#FDFEFB"/>
</svg>
