<svg width="27" height="28" viewBox="0 0 27 28" fill="none" xmlns="http://www.w3.org/2000/svg">
<path d="M6.04366 27.5031H0.445982V9.47694H6.04366V27.5031ZM3.24181 7.01801C1.45185 7.01801 0 5.53543 0 3.74547C1.28117e-08 2.88569 0.341547 2.06112 0.949504 1.45317C1.55746 0.845209 2.38203 0.503662 3.24181 0.503662C4.10159 0.503662 4.92616 0.845209 5.53411 1.45317C6.14207 2.06112 6.48362 2.88569 6.48362 3.74547C6.48362 5.53543 5.03116 7.01801 3.24181 7.01801ZM26.994 27.5031H21.4083V18.7281C21.4083 16.6368 21.3662 13.9548 18.498 13.9548C15.5877 13.9548 15.1417 16.2269 15.1417 18.5774V27.5031H9.55005V9.47694H14.9187V11.9359H14.9971C15.7444 10.5196 17.5699 9.02493 20.2934 9.02493C25.9586 9.02493 27 12.7555 27 17.6011V27.5031H26.994Z" fill="#71201D"/>
</svg>
