<svg width="15" height="15" viewBox="0 0 15 15" fill="none" xmlns="http://www.w3.org/2000/svg">
<path d="M7.6104 3.78218C5.61836 3.78218 4.01157 5.38897 4.01157 7.38101C4.01157 9.37305 5.61836 10.9798 7.6104 10.9798C9.60244 10.9798 11.2092 9.37305 11.2092 7.38101C11.2092 5.38897 9.60244 3.78218 7.6104 3.78218ZM7.6104 9.72071C6.32309 9.72071 5.27069 8.67145 5.27069 7.38101C5.27069 6.09057 6.31996 5.0413 7.6104 5.0413C8.90084 5.0413 9.9501 6.09057 9.9501 7.38101C9.9501 8.67145 8.89771 9.72071 7.6104 9.72071ZM12.1958 3.63497C12.1958 4.10166 11.82 4.47438 11.3564 4.47438C10.8897 4.47438 10.517 4.09853 10.517 3.63497C10.517 3.17142 10.8929 2.79556 11.3564 2.79556C11.82 2.79556 12.1958 3.17142 12.1958 3.63497ZM14.5794 4.48691C14.5262 3.36248 14.2693 2.36646 13.4456 1.54584C12.625 0.725216 11.6289 0.468381 10.5045 0.412002C9.3456 0.346227 5.87206 0.346227 4.71317 0.412002C3.59187 0.465248 2.59585 0.722084 1.77209 1.5427C0.948341 2.36332 0.694638 3.35934 0.638259 4.48378C0.572485 5.64267 0.572485 9.11621 0.638259 10.2751C0.691506 11.3995 0.948341 12.3956 1.77209 13.2162C2.59585 14.0368 3.58873 14.2936 4.71317 14.35C5.87206 14.4158 9.3456 14.4158 10.5045 14.35C11.6289 14.2968 12.625 14.0399 13.4456 13.2162C14.2662 12.3956 14.523 11.3995 14.5794 10.2751C14.6452 9.11621 14.6452 5.6458 14.5794 4.48691ZM13.0822 11.5186C12.8379 12.1325 12.365 12.6054 11.748 12.8529C10.824 13.2193 8.63147 13.1347 7.6104 13.1347C6.58932 13.1347 4.39369 13.2162 3.47284 12.8529C2.85894 12.6085 2.38599 12.1356 2.13855 11.5186C1.77209 10.5946 1.85666 8.40209 1.85666 7.38101C1.85666 6.35993 1.77523 4.1643 2.13855 3.24345C2.38286 2.62956 2.85581 2.1566 3.47284 1.90916C4.39682 1.5427 6.58932 1.62727 7.6104 1.62727C8.63147 1.62727 10.8271 1.54584 11.748 1.90916C12.3619 2.15347 12.8348 2.62642 13.0822 3.24345C13.4487 4.16744 13.3641 6.35993 13.3641 7.38101C13.3641 8.40209 13.4487 10.5977 13.0822 11.5186Z" fill="#FDFEFB"/>
</svg>
