<svg width="27" height="28" viewBox="0 0 27 28" fill="none" xmlns="http://www.w3.org/2000/svg">
<path d="M13.503 7.0809C9.67211 7.0809 6.5821 10.1716 6.5821 14.0034C6.5821 17.8351 9.67211 20.9258 13.503 20.9258C17.3339 20.9258 20.4239 17.8351 20.4239 14.0034C20.4239 10.1716 17.3339 7.0809 13.503 7.0809ZM13.503 18.5039C11.0274 18.5039 9.00351 16.4856 9.00351 14.0034C9.00351 11.5212 11.0214 9.50286 13.503 9.50286C15.9847 9.50286 18.0025 11.5212 18.0025 14.0034C18.0025 16.4856 15.9786 18.5039 13.503 18.5039ZM22.3213 6.79773C22.3213 7.69542 21.5985 8.41237 20.707 8.41237C19.8095 8.41237 19.0928 7.6894 19.0928 6.79773C19.0928 5.90607 19.8156 5.1831 20.707 5.1831C21.5985 5.1831 22.3213 5.90607 22.3213 6.79773ZM26.9051 8.43647C26.8027 6.27358 26.3088 4.3577 24.7247 2.77921C23.1465 1.20072 21.2311 0.706693 19.0687 0.598247C16.84 0.471727 10.16 0.471727 7.93134 0.598247C5.77496 0.700668 3.85951 1.1947 2.27535 2.77319C0.691188 4.35168 0.203291 6.26755 0.0948689 8.43045C-0.031623 10.6596 -0.031623 17.3411 0.0948689 19.5702C0.197267 21.7331 0.691188 23.649 2.27535 25.2275C3.85951 26.806 5.76893 27.3 7.93134 27.4085C10.16 27.535 16.84 27.535 19.0687 27.4085C21.2311 27.306 23.1465 26.812 24.7247 25.2275C26.3028 23.649 26.7967 21.7331 26.9051 19.5702C27.0316 17.3411 27.0316 10.6656 26.9051 8.43647ZM24.0259 21.9621C23.5561 23.1429 22.6466 24.0527 21.46 24.5286C19.683 25.2335 15.4666 25.0709 13.503 25.0709C11.5394 25.0709 7.31695 25.2275 5.54607 24.5286C4.36548 24.0587 3.45594 23.149 2.98009 21.9621C2.27535 20.1848 2.43798 15.9674 2.43798 14.0034C2.43798 12.0393 2.28137 7.81592 2.98009 6.04464C3.44992 4.86378 4.35945 3.95404 5.54607 3.47809C7.32298 2.77319 11.5394 2.93586 13.503 2.93586C15.4666 2.93586 19.6891 2.77921 21.46 3.47809C22.6405 3.94802 23.5501 4.85776 24.0259 6.04464C24.7307 7.82194 24.568 12.0393 24.568 14.0034C24.568 15.9674 24.7307 20.1908 24.0259 21.9621Z" fill="#71201D"/>
</svg>
