<svg width="186" height="73" viewBox="0 0 186 73" fill="none" xmlns="http://www.w3.org/2000/svg">
<path d="M53.8908 0.595947C53.1357 0.902733 51.767 2.27147 51.0826 3.38061C50.1386 4.91453 48.4631 8.33636 47.9675 9.79949C47.4248 11.357 45.1593 13.7641 41.2655 16.9027C34.5162 22.3305 29.9616 25.1151 22.1268 28.6313C20.1209 29.5517 17.8082 30.59 16.9587 30.9676C16.1091 31.3688 14.6932 31.9588 13.7729 32.3128C12.1209 32.9735 11.3186 33.4927 11.5782 33.7759C11.6726 33.8467 13.2773 33.4691 15.1888 32.9263C25.5015 30.0237 34.1858 26.1063 40.9115 21.3629C43.5546 19.475 45.2773 18.6018 45.2773 19.121C45.2773 19.1918 45.1357 20.2774 44.9469 21.5517C44.7581 22.8024 44.5457 24.478 44.4513 25.2567C43.649 33.3275 40.8407 38.7552 35.4838 42.7198C29.5369 47.0856 21.2537 49.4691 11.8849 49.4691C7.75515 49.4455 6.33922 49.1859 4.68731 48.0532C2.823 46.8024 2.46902 45.3157 3.67256 43.829C5.34807 41.7287 8.7935 40.5723 13.1357 40.6667C17.0767 40.7375 19.6018 41.2803 22.5516 42.6962L23.6844 43.2626L24.8643 42.7198C25.5015 42.4131 26.5634 41.9411 27.2006 41.6579C27.8141 41.3747 28.2389 41.0679 28.1445 40.9499C27.6726 40.5487 23.7552 39.062 21.7964 38.5664C19.9793 38.0945 19.1062 38.0237 15.6608 38.0237C12.0737 38.0237 11.3894 38.0945 9.28908 38.6608C4.40412 39.9588 1.52506 41.9647 0.463118 44.8201C-0.0560561 46.2125 -0.0560561 46.2125 0.41592 47.18C1.28908 49.0207 2.13863 49.6815 4.8997 50.649C7.04719 51.4042 13.2537 51.711 16.9587 51.2626C18.6814 51.0502 23.9439 49.8939 25.9262 49.3039C28.8053 48.4543 32.8643 46.6608 35.0826 45.2685C35.7669 44.8437 36.3805 44.4897 36.4277 44.4897C36.7109 44.4897 39.6136 42.1299 40.8171 40.9263C44.5929 37.1505 46.0088 33.6107 46.8112 26.0827C47.2596 21.6933 47.7788 19.0266 48.4631 17.4691C48.7463 16.8083 49.879 15.2508 50.9646 13.9529C53.6077 10.8378 54.292 9.94108 55.2596 8.21836C57.2891 4.63135 57.8082 1.42191 56.5103 0.548752C56.1563 0.312763 54.4808 0.336361 53.8908 0.595947Z" fill="#9D071B"/>
<path d="M135.543 18.413C131.13 22.1652 131.743 21.882 127.637 22.1888C126.788 22.236 123.932 22.4484 121.265 22.6608C118.599 22.8496 115.956 23.0383 115.389 23.0855C114.469 23.1327 114.257 23.2507 113.879 23.9115C113.619 24.3363 113.478 24.7375 113.549 24.8083C113.643 24.9026 118.906 24.6431 123.271 24.2891C128.204 23.9115 129.808 23.8407 129.903 23.9823C129.95 24.0767 128.062 25.6814 125.702 27.5457C123.319 29.3864 121.218 31.0383 121.029 31.2035C118.481 33.2802 111.968 38.118 111.708 38.118C111.614 38.118 111.118 38.4248 110.575 38.8024C108.499 40.2183 102.858 43.4277 100.31 44.6549C95.6372 46.8495 92.0265 47.5811 89.9498 46.7316C88.8171 46.2596 88.2979 45.6224 88.1327 44.4189C87.9439 43.1445 88.2271 42.2006 89.3599 40.2655C89.879 39.4159 90.469 38.1888 90.705 37.5516C91.1298 36.4425 91.1298 36.3953 90.7286 36.0885C90.3746 35.8289 90.115 35.8761 89.0767 36.4189C88.4159 36.7729 87.2832 37.3392 86.5752 37.646C85.8672 37.9764 84.2389 38.8024 82.9646 39.4867C80.6519 40.7375 79.9911 40.9026 80.7463 40.0531C81.1239 39.6283 81.1239 39.5811 80.6991 39.2035C80.2507 38.7788 80.1327 38.826 77.4661 40.2419C72.8171 42.6962 69.3481 43.8525 65.8082 44.1357C63.6136 44.3009 62.882 44.0177 62.7876 42.8849C62.7168 42.2006 62.882 41.941 64.1327 40.7611C65.4071 39.5811 65.9734 38.59 65.3599 38.59C65.2183 38.59 62.9292 39.9351 60.2153 41.587C53.3717 45.7404 52.2153 46.3304 50.0678 46.7552C47.9439 47.1563 47.3068 47.0619 46.8112 46.2832C46.3156 45.528 46.646 44.7493 47.9203 43.7109C50.6106 41.5162 55.0472 39.5811 61.6313 37.7876C63.7788 37.1976 65.6195 36.7021 65.6903 36.7021C65.9498 36.7021 65.7847 35.9941 65.5251 35.9705C63.5664 35.7817 58.115 36.9852 54.1032 38.4956C48.1563 40.7139 43.531 43.5457 42.587 45.528C42.0442 46.6844 42.115 47.3451 42.8938 48.1947C44.7581 50.2478 50.2566 50.1298 54.3628 47.9351C55.59 47.2979 55.8259 47.1563 57.4307 46.118C57.9498 45.7876 58.4926 45.4336 58.6342 45.3628C58.7758 45.2684 59.1534 45.4336 59.4602 45.6932C60.5693 46.6844 61.5605 46.9439 63.9675 46.9203C66.823 46.8731 71.3068 45.7876 73.6431 44.5841C75.3186 43.7109 74.1386 45.2212 70.9528 47.9587C69.8436 48.9262 69.8436 48.9262 70.3156 49.351C70.7876 49.7758 70.8348 49.7758 71.6608 49.3038C72.1327 49.0206 73.3835 48.3599 74.4218 47.7935C76.1917 46.8259 78.7168 45.4336 80.3215 44.4897C80.7227 44.2537 81.6667 43.7109 82.469 43.2625C83.2478 42.8142 84.3097 42.1534 84.8289 41.7994C85.3245 41.469 85.82 41.1858 85.9144 41.1858C86.0088 41.1858 85.82 41.7994 85.4897 42.531C84.6401 44.4189 84.4985 46.708 85.1357 47.7227C87.0708 50.8141 94.292 49.9882 102.717 45.764C104.652 44.7729 106.776 43.6401 107.437 43.2389C108.097 42.8142 109.324 42.1062 110.174 41.6814C111.024 41.233 112.652 40.3127 113.808 39.6047C114.965 38.9203 115.932 38.354 115.979 38.354C116.027 38.354 115.578 39.0383 115.012 39.8643C113.383 42.1534 112.44 44.3717 112.345 46.0472C112.251 47.3687 112.298 47.5575 112.935 48.2655C113.761 49.1858 114.894 49.4454 116.782 49.1386C118.457 48.879 119.614 48.3599 122.611 46.472C123.979 45.6224 125.23 44.9852 125.395 45.056C125.584 45.1268 125.844 45.5988 125.985 46.118C126.764 49.0678 129.572 49.7522 133.23 47.9115C135.566 46.708 136.959 45.41 138.87 42.649C139.743 41.3982 140.546 40.3127 140.64 40.2183C140.758 40.1475 141.773 40.1239 142.906 40.1475C144.959 40.2183 149.277 39.6519 152.298 38.9439C153.171 38.7552 153.973 38.6372 154.091 38.7316C154.634 39.0619 154.186 39.9823 152.746 41.5162C150.788 43.5929 150.103 44.7729 149.914 46.4248C149.773 47.7463 149.773 47.7935 150.552 48.5723C151.236 49.233 151.59 49.3982 152.793 49.5398C154.422 49.7286 155.484 49.6106 158.174 48.9262C160.227 48.4307 161.95 47.6283 164.522 45.9764C166.056 44.9852 166.221 44.938 166.457 45.3156C167.519 47.1563 168.935 47.8879 172.31 48.4071C175.26 48.8554 180.333 48.7375 182.764 48.1711L184.463 47.7699L184.935 46.3068C185.195 45.5044 185.383 44.8201 185.36 44.7729C185.313 44.7493 184.652 45.0324 183.897 45.41C181.254 46.708 180.003 46.9675 176.133 46.9439C170.941 46.9203 168.699 46.2832 168.699 44.7965C168.699 44.0413 169.69 42.0354 170.587 41.0206C170.988 40.5723 171.295 40.1239 171.295 40.0059C171.295 39.5339 170.398 39.7935 169.501 40.5487C168.062 41.7522 164.664 44.3245 163.602 45.0088C160.463 47.0383 156.758 48.2183 154.634 47.8643C153.596 47.6991 151.944 46.2124 151.944 45.4572C151.944 44.4189 153.029 42.7198 155.035 40.6431C156.664 38.9439 157.088 38.3776 156.994 38C156.782 37.3156 156.239 36.2773 156.003 36.1357C155.909 36.0649 154.681 36.3245 153.289 36.7021C149.962 37.5988 146.752 37.9764 143.802 37.8348C141.088 37.6932 140.168 37.3628 138.965 36.1121C138.044 35.1681 137.431 35.0973 135.991 35.7345C135.118 36.1357 129.619 39.7463 124.805 43.0973C120.038 46.4012 116.263 47.8407 115.201 46.7788C114.398 45.9764 114.705 44.0177 115.956 42.177C116.475 41.4218 121.596 36.0413 129.761 27.6401C131.649 25.705 133.324 24.0059 133.466 23.8407C133.749 23.5339 134.67 23.4159 138.611 23.1327C139.649 23.0619 141.041 22.9439 141.678 22.8967C142.976 22.7788 149.324 22.2596 156.333 21.7168C158.811 21.528 161.643 21.3156 162.587 21.2448C164.805 21.056 165.395 20.938 165.395 20.6549C165.395 20.5133 164.9 20.4661 164.286 20.5369C163.649 20.5841 161.572 20.7021 159.614 20.7729C155.791 20.9144 148.192 21.292 145.336 21.4808C144.369 21.528 141.82 21.6696 139.673 21.7404L135.802 21.9056L138.021 19.6165C139.248 18.3422 140.286 17.233 140.333 17.115C140.451 16.8083 139.909 14.9911 139.72 15.0147C139.625 15.0147 137.761 16.5487 135.543 18.413ZM135.92 38.8731C136.156 39.4395 136.534 39.7463 137.313 40.0295C138.611 40.5251 138.611 40.7847 137.171 42.6018C134.504 46 130.705 47.9115 128.935 46.7552C128.227 46.2832 128.204 45.8584 128.793 44.6077C129.501 43.0973 134.481 38.1652 135.33 38.118C135.472 38.118 135.732 38.472 135.92 38.8731Z" fill="#9D071B"/>
<path d="M65.3598 63.888C65.6902 64.2184 66.5398 66.0119 67.4365 68.2538C68.2625 70.3777 69.0176 72.1004 69.0884 72.1004C69.1592 72.1004 69.7492 70.6608 70.3864 68.9145C71.0235 67.1446 71.5663 65.7523 71.6135 65.7995C71.6607 65.8231 72.2271 67.2862 72.8879 69.0325C73.5486 70.7788 74.115 72.2184 74.1622 72.2656C74.1858 72.3128 74.8938 70.6372 75.7197 68.537C76.7581 65.9175 77.4424 64.5251 77.938 64.0532L78.646 63.3688H76.994C75.4601 63.3924 75.3893 63.416 75.9793 63.7228C76.3333 63.9116 76.6637 64.242 76.7581 64.4308C76.8289 64.6431 76.4277 66.0119 75.8613 67.4514C74.8466 70.0473 74.823 70.0709 74.5634 69.3865C74.3982 68.9853 73.8554 67.5458 73.3126 66.1299C72.7699 64.7375 72.2743 63.6048 72.1799 63.6048C72.1091 63.6048 71.5191 65.0443 70.882 66.7906C70.2684 68.5605 69.6784 69.9057 69.584 69.8113C69.23 69.4101 67.4601 64.2656 67.6017 64.0532C67.6725 63.9116 67.9793 63.7228 68.2625 63.6048C68.5929 63.4632 68.1445 63.3924 66.7758 63.3924L64.7935 63.3688L65.3598 63.888Z" fill="black"/>
<path d="M82.4218 63.9588C83.0117 64.5251 83.0353 64.5959 83.0353 67.475C83.0353 70.5428 82.823 71.6284 82.2094 71.6284C82.0206 71.6284 81.8554 71.7228 81.8554 71.8408C81.8554 71.9588 82.7286 72.0532 83.7905 72.0532L85.7256 72.0296L85.0884 71.5812L84.4513 71.1092V67.7818C84.4513 65.9411 84.5457 64.3128 84.6401 64.1712C84.7345 64.0296 85.0177 63.7936 85.2772 63.652C85.6548 63.4396 85.3716 63.3924 83.7669 63.3688H81.7846L82.4218 63.9588Z" fill="black"/>
<path d="M89.7847 64.006L90.4926 64.6668L90.3511 67.8054C90.2331 70.7081 90.1859 70.9913 89.7139 71.3925C89.4071 71.6285 89.1711 71.8644 89.1711 71.9352C89.1711 72.006 89.8555 72.0532 90.705 72.0296C91.5546 72.0296 92.239 71.9352 92.239 71.8172C92.239 71.7228 92.0974 71.6285 91.9086 71.6285C91.177 71.6285 90.941 70.8733 90.823 67.9234C90.7522 66.3423 90.7758 65.0444 90.8466 65.068C90.9174 65.1152 92.4513 66.7199 94.2684 68.655L97.5487 72.1948L97.6667 68.2302C97.7847 64.36 97.7847 64.2656 98.3746 63.8408L98.9646 63.3689L97.4307 63.3925C95.944 63.3925 95.9204 63.3925 96.5339 63.7464C97.3599 64.1948 97.4543 64.6196 97.3835 67.4751L97.3127 69.8113L94.3628 66.6019L91.413 63.3925L90.2331 63.3689H89.0767L89.7847 64.006Z" fill="black"/>
<path d="M102.811 63.7935C103.259 64.1475 103.377 64.5015 103.495 66.2242C103.684 69.1269 103.425 71.416 102.835 71.5575C101.608 71.8879 102.74 72.0531 105.997 72.0059L109.584 71.9823L109.962 70.8024C110.174 70.1416 110.316 69.5988 110.292 69.5516C110.268 69.528 109.796 69.9292 109.254 70.4484C108.31 71.3452 108.121 71.8171 109.041 70.9912C109.466 70.6136 109.631 70.8024 109.277 71.298C109.041 71.6519 105.714 71.6991 105.313 71.3688C105.077 71.18 104.982 70.5192 104.982 69.2449C104.982 67.4513 105.006 67.3806 105.525 67.4042C106.563 67.4513 107.224 67.7581 107.507 68.3245C107.767 68.8437 107.814 68.7493 107.79 67.3806C107.79 66.531 107.72 66.0118 107.649 66.2006C107.436 66.8142 106.799 67.1446 105.879 67.1446H104.982V65.6106C104.982 64.3599 105.053 64.0531 105.431 63.8407C106.634 63.2036 108.829 63.9587 109.136 65.1387C109.395 66.1298 109.608 65.7994 109.466 64.5959L109.348 63.4867L105.808 63.4395C102.386 63.3688 102.292 63.3923 102.811 63.7935Z" fill="black"/>
<path d="M114.634 63.6992C114.304 63.9116 113.879 64.3836 113.714 64.7848C113.454 65.4219 113.454 65.6579 113.808 66.3423C114.115 67.003 114.516 67.3334 115.72 67.8762C116.569 68.2538 117.466 68.773 117.726 69.0325C118.764 70.0709 117.985 71.8644 116.546 71.8644C115.46 71.8644 114.587 71.3216 113.973 70.2125C113.69 69.6697 113.407 69.2685 113.383 69.3157C113.36 69.3629 113.36 69.8821 113.431 70.4957L113.525 71.6048L114.847 71.9824C116.546 72.478 117.584 72.2892 118.599 71.2744C119.189 70.6845 119.377 70.2833 119.377 69.6461C119.377 68.3482 118.858 67.8054 116.758 66.7907C114.87 65.8939 114.327 65.3275 114.611 64.5488C114.799 63.9588 115.413 63.6048 116.192 63.6048C117.112 63.6048 117.891 64.1476 118.316 65.0915L118.67 65.8467L118.528 64.7848C118.434 64.1948 118.363 63.6992 118.316 63.652C118.292 63.6284 117.584 63.534 116.758 63.4632C115.672 63.3924 115.082 63.4632 114.634 63.6992Z" fill="black"/>
</svg>
