<svg width="12" height="13" viewBox="0 0 12 13" fill="none" xmlns="http://www.w3.org/2000/svg">
<path d="M11.6578 8.97962L9.03273 7.8546C8.9206 7.80681 8.79597 7.79674 8.67761 7.82591C8.55925 7.85508 8.45357 7.9219 8.37647 8.01632L7.21395 9.43666C5.38949 8.57644 3.92121 7.10817 3.06099 5.2837L4.48133 4.12118C4.57594 4.04423 4.64291 3.93854 4.67209 3.82013C4.70127 3.70172 4.69107 3.57702 4.64305 3.46492L3.51803 0.839872C3.46532 0.719028 3.3721 0.620363 3.25444 0.56089C3.13677 0.501417 3.00205 0.484864 2.87349 0.514085L0.435945 1.07659C0.311998 1.10522 0.201412 1.17501 0.122237 1.27457C0.0430613 1.37414 -2.85523e-05 1.4976 1.41945e-08 1.62481C1.41945e-08 7.63663 4.87274 12.5 10.8752 12.5C11.0024 12.5001 11.126 12.457 11.2256 12.3778C11.3252 12.2987 11.395 12.188 11.4236 12.0641L11.9861 9.62651C12.0152 9.49732 11.9983 9.36206 11.9383 9.24399C11.8784 9.12592 11.7792 9.03244 11.6578 8.97962Z" fill="#FDFEFB"/>
</svg>
