<svg width="35" height="41" viewBox="0 0 35 41" fill="none" xmlns="http://www.w3.org/2000/svg">
<path opacity="0.8" d="M31.7188 0H22.9688C21.1572 0 19.6875 1.95964 19.6875 4.375V16.0417C19.6875 18.457 21.1572 20.4167 22.9688 20.4167H28.4375V26.25C28.4375 29.4674 26.4756 32.0833 24.0625 32.0833H23.5156C22.6064 32.0833 21.875 33.0586 21.875 34.2708V38.6458C21.875 39.8581 22.6064 40.8333 23.5156 40.8333H24.0625C30.1055 40.8333 35 34.3073 35 26.25V4.375C35 1.95964 33.5303 0 31.7188 0ZM12.0312 0H3.28125C1.46973 0 0 1.95964 0 4.375V16.0417C0 18.457 1.46973 20.4167 3.28125 20.4167H8.75V26.25C8.75 29.4674 6.78809 32.0833 4.375 32.0833H3.82812C2.91895 32.0833 2.1875 33.0586 2.1875 34.2708V38.6458C2.1875 39.8581 2.91895 40.8333 3.82812 40.8333H4.375C10.418 40.8333 15.3125 34.3073 15.3125 26.25V4.375C15.3125 1.95964 13.8428 0 12.0312 0Z" fill="#71201D"/>
</svg>
