<svg width="15" height="15" viewBox="0 0 15 15" fill="none" xmlns="http://www.w3.org/2000/svg">
<path d="M7.98167 3.90117C5.98964 3.90117 4.38285 5.50796 4.38285 7.5C4.38285 9.49204 5.98964 11.0988 7.98167 11.0988C9.97371 11.0988 11.5805 9.49204 11.5805 7.5C11.5805 5.50796 9.97371 3.90117 7.98167 3.90117ZM7.98167 9.8397C6.69437 9.8397 5.64197 8.79044 5.64197 7.5C5.64197 6.20956 6.69123 5.16029 7.98167 5.16029C9.27212 5.16029 10.3214 6.20956 10.3214 7.5C10.3214 8.79044 9.26898 9.8397 7.98167 9.8397V9.8397ZM12.5671 3.75396C12.5671 4.22065 12.1913 4.59337 11.7277 4.59337C11.261 4.59337 10.8883 4.21752 10.8883 3.75396C10.8883 3.2904 11.2642 2.91455 11.7277 2.91455C12.1913 2.91455 12.5671 3.2904 12.5671 3.75396ZM14.9507 4.6059C14.8974 3.48146 14.6406 2.48544 13.8168 1.66482C12.9962 0.844204 12.0002 0.587369 10.8758 0.53099C9.71688 0.465215 6.24334 0.465215 5.08445 0.53099C3.96314 0.584236 2.96712 0.841072 2.14337 1.66169C1.31962 2.48231 1.06591 3.47833 1.00954 4.60277C0.943761 5.76166 0.943761 9.2352 1.00954 10.3941C1.06278 11.5185 1.31962 12.5145 2.14337 13.3352C2.96712 14.1558 3.96001 14.4126 5.08445 14.469C6.24334 14.5348 9.71688 14.5348 10.8758 14.469C12.0002 14.4158 12.9962 14.1589 13.8168 13.3352C14.6375 12.5145 14.8943 11.5185 14.9507 10.3941C15.0165 9.2352 15.0165 5.76479 14.9507 4.6059V4.6059ZM13.4535 11.6375C13.2092 12.2514 12.7363 12.7244 12.1192 12.9718C11.1952 13.3383 9.00275 13.2537 7.98167 13.2537C6.9606 13.2537 4.76497 13.3352 3.84412 12.9718C3.23022 12.7275 2.75727 12.2546 2.50983 11.6375C2.14337 10.7136 2.22794 8.52107 2.22794 7.5C2.22794 6.47892 2.1465 4.28329 2.50983 3.36244C2.75414 2.74854 3.22709 2.27559 3.84412 2.02815C4.7681 1.66169 6.9606 1.74626 7.98167 1.74626C9.00275 1.74626 11.1984 1.66482 12.1192 2.02815C12.7331 2.27246 13.2061 2.74541 13.4535 3.36244C13.82 4.28642 13.7354 6.47892 13.7354 7.5C13.7354 8.52107 13.82 10.7167 13.4535 11.6375Z" fill="#2B2726"/>
</svg>
