<svg width="13" height="12" viewBox="0 0 13 12" fill="none" xmlns="http://www.w3.org/2000/svg">
<path d="M5.54846 3.06446L3.92822 0.36422C3.8616 0.25314 3.76735 0.161208 3.65464 0.0973793C3.54194 0.0335507 3.41462 1.5903e-06 3.28509 0H0.680009C0.376492 0 0.198835 0.341485 0.372742 0.590158L2.98064 4.31579C3.6772 3.66493 4.56314 3.21821 5.54846 3.06446ZM11.9286 0H9.32355C9.06011 0 8.81589 0.138282 8.68042 0.36422L7.06018 3.06446C8.0455 3.21821 8.93144 3.66493 9.628 4.31556L12.2359 0.590158C12.4098 0.341485 12.2322 0 11.9286 0ZM6.30432 3.75001C4.02619 3.75001 2.17931 5.59689 2.17931 7.87502C2.17931 10.1532 4.02619 12 6.30432 12C8.58245 12 10.4293 10.1532 10.4293 7.87502C10.4293 5.59689 8.58245 3.75001 6.30432 3.75001ZM8.47276 7.4358L7.58378 8.30206L7.79401 9.52596C7.83151 9.74534 7.60042 9.91292 7.40378 9.80933L6.30432 9.23159L5.2051 9.80933C5.00822 9.91362 4.77736 9.74511 4.81486 9.52596L5.0251 8.30206L4.13611 7.4358C3.97627 7.28018 4.06463 7.00854 4.28494 6.97666L5.51377 6.7976L6.06291 5.68384C6.11237 5.58353 6.20799 5.53408 6.30385 5.53408C6.40018 5.53408 6.49651 5.58423 6.54596 5.68384L7.0951 6.7976L8.32394 6.97666C8.54425 7.00854 8.63261 7.28018 8.47276 7.4358Z" fill="#2B2726"/>
</svg>
