<svg width="186" height="72" viewBox="0 0 186 72" fill="none" xmlns="http://www.w3.org/2000/svg">
<path d="M53.8232 0.210266C53.0681 0.517052 51.6993 1.88578 51.015 2.99493C50.071 4.52885 48.3955 7.95068 47.8999 9.41381C47.3571 10.9713 45.0917 13.3784 41.1978 16.517C34.4486 21.9448 29.894 24.7294 22.0592 28.2457C20.0533 29.166 17.7406 30.2044 16.8911 30.5819C16.0415 30.9831 14.6256 31.5731 13.7052 31.9271C12.0533 32.5878 11.2509 33.107 11.5105 33.3902C11.6049 33.461 13.2096 33.0834 15.1212 32.5406C25.4338 29.638 34.1182 25.7206 40.8439 20.9772C43.4869 19.0893 45.2096 18.2162 45.2096 18.7353C45.2096 18.8061 45.0681 19.8917 44.8793 21.166C44.6905 22.4168 44.4781 24.0923 44.3837 24.871C43.5813 32.9418 40.7731 38.3696 35.4161 42.3342C29.4692 46.6999 21.1861 49.0834 11.8173 49.0834C7.68753 49.0598 6.2716 48.8002 4.61968 47.6675C2.75537 46.4167 2.40139 44.93 3.60493 43.4433C5.28045 41.343 8.72587 40.1867 13.0681 40.2811C17.0091 40.3519 19.5341 40.8946 22.484 42.3106L23.6167 42.8769L24.7967 42.3342C25.4338 42.0274 26.4958 41.5554 27.133 41.2722C27.7465 40.989 28.1713 40.6822 28.0769 40.5642C27.6049 40.1631 23.6875 38.6763 21.7288 38.1808C19.9117 37.7088 19.0386 37.638 15.5931 37.638C12.0061 37.638 11.3217 37.7088 9.22145 38.2752C4.33649 39.5731 1.45744 41.579 0.395491 44.4344C-0.123683 45.8268 -0.123683 45.8268 0.348293 46.7943C1.22145 48.635 2.07101 49.2958 4.83207 50.2634C6.97956 51.0185 13.186 51.3253 16.8911 50.8769C18.6138 50.6645 23.8763 49.5082 25.8586 48.9182C28.7377 48.0687 32.7967 46.2752 35.015 44.8828C35.6993 44.458 36.3129 44.1041 36.3601 44.1041C36.6433 44.1041 39.5459 41.7442 40.7495 40.5406C44.5253 36.7648 45.9412 33.225 46.7436 25.697C47.1919 21.3076 47.7111 18.6409 48.3955 17.0834C48.6787 16.4227 49.8114 14.8651 50.897 13.5672C53.54 10.4522 54.2244 9.5554 55.1919 7.83268C57.2214 4.24567 57.7406 1.03622 56.4427 0.163071C56.0887 -0.0729179 54.4132 -0.0493202 53.8232 0.210266Z" fill="#FDFEFB"/>
<path d="M135.475 18.0274C131.062 21.7796 131.676 21.4964 127.57 21.8032C126.72 21.8504 123.865 22.0628 121.198 22.2751C118.531 22.4639 115.888 22.6527 115.322 22.6999C114.401 22.7471 114.189 22.8651 113.811 23.5259C113.552 23.9507 113.41 24.3518 113.481 24.4226C113.575 24.517 118.838 24.2574 123.204 23.9035C128.136 23.5259 129.741 23.4551 129.835 23.5967C129.882 23.6911 127.994 25.2958 125.634 27.1601C123.251 29.0008 121.151 30.6527 120.962 30.8179C118.413 32.8946 111.9 37.7324 111.64 37.7324C111.546 37.7324 111.05 38.0392 110.508 38.4167C108.431 39.8327 102.791 43.0421 100.242 44.2692C95.5695 46.4639 91.9589 47.1955 89.8822 46.3459C88.7495 45.874 88.2303 45.2368 88.0651 44.0333C87.8763 42.7589 88.1595 41.815 89.2922 39.8799C89.8114 39.0303 90.4014 37.8032 90.6374 37.166C91.0621 36.0569 91.0621 36.0097 90.661 35.7029C90.307 35.4433 90.0474 35.4905 89.0091 36.0333C88.3483 36.3872 87.2155 36.9536 86.5076 37.2604C85.7996 37.5908 84.1713 38.4167 82.897 39.1011C80.5843 40.3518 79.9235 40.517 80.6787 39.6675C81.0563 39.2427 81.0563 39.1955 80.6315 38.8179C80.1831 38.3931 80.0651 38.4403 77.3984 39.8563C72.7495 42.3105 69.2804 43.4669 65.7406 43.7501C63.5459 43.9153 62.8144 43.6321 62.72 42.4993C62.6492 41.815 62.8144 41.5554 64.0651 40.3754C65.3394 39.1955 65.9058 38.2043 65.2922 38.2043C65.1507 38.2043 62.8616 39.5495 60.1477 41.2014C53.304 45.3548 52.1477 45.9448 50.0002 46.3695C47.8763 46.7707 47.2391 46.6763 46.7436 45.8976C46.248 45.1424 46.5784 44.3636 47.8527 43.3253C50.543 41.1306 54.9796 39.1955 61.5636 37.402C63.7111 36.812 65.5518 36.3164 65.6226 36.3164C65.8822 36.3164 65.717 35.6085 65.4574 35.5849C63.4987 35.3961 58.0474 36.5996 54.0356 38.1099C48.0887 40.3282 43.4633 43.1601 42.5194 45.1424C41.9766 46.2987 42.0474 46.9595 42.8262 47.8091C44.6905 49.8622 50.189 49.7442 54.2952 47.5495C55.5223 46.9123 55.7583 46.7707 57.363 45.7324C57.8822 45.402 58.425 45.048 58.5666 44.9772C58.7082 44.8828 59.0858 45.048 59.3925 45.3076C60.5017 46.2987 61.4928 46.5583 63.8999 46.5347C66.7554 46.4875 71.2391 45.402 73.5754 44.1984C75.2509 43.3253 74.071 44.8356 70.8852 47.5731C69.776 48.5406 69.776 48.5406 70.248 48.9654C70.72 49.3902 70.7672 49.3902 71.5931 48.9182C72.0651 48.635 73.3158 47.9743 74.3542 47.4079C76.1241 46.4403 78.6492 45.048 80.2539 44.104C80.6551 43.8681 81.599 43.3253 82.4014 42.8769C83.1801 42.4285 84.2421 41.7678 84.7613 41.4138C85.2568 41.0834 85.7524 40.8002 85.8468 40.8002C85.9412 40.8002 85.7524 41.4138 85.422 42.1453C84.5725 44.0332 84.4309 46.3223 85.0681 47.3371C87.0032 50.4285 94.2244 49.6026 102.649 45.3784C104.584 44.3872 106.708 43.2545 107.369 42.8533C108.03 42.4285 109.257 41.7206 110.106 41.2958C110.956 40.8474 112.584 39.9271 113.741 39.2191C114.897 38.5347 115.865 37.9684 115.912 37.9684C115.959 37.9684 115.511 38.6527 114.944 39.4787C113.316 41.7678 112.372 43.9861 112.277 45.6616C112.183 46.9831 112.23 47.1719 112.867 47.8799C113.693 48.8002 114.826 49.0598 116.714 48.753C118.39 48.4934 119.546 47.9743 122.543 46.0863C123.912 45.2368 125.162 44.5996 125.328 44.6704C125.516 44.7412 125.776 45.2132 125.918 45.7324C126.696 48.6822 129.505 49.3666 133.162 47.5259C135.499 46.3223 136.891 45.0244 138.803 42.2633C139.676 41.0126 140.478 39.9271 140.572 39.8327C140.69 39.7619 141.705 39.7383 142.838 39.7619C144.891 39.8327 149.21 39.2663 152.23 38.5583C153.103 38.3695 153.906 38.2515 154.024 38.3459C154.567 38.6763 154.118 39.5967 152.679 41.1306C150.72 43.2073 150.036 44.3872 149.847 46.0391C149.705 47.3607 149.705 47.4079 150.484 48.1866C151.168 48.8474 151.522 49.0126 152.726 49.1542C154.354 49.343 155.416 49.225 158.106 48.5406C160.159 48.045 161.882 47.2427 164.454 45.5908C165.988 44.5996 166.154 44.5524 166.39 44.93C167.452 46.7707 168.867 47.5023 172.242 48.0215C175.192 48.4698 180.266 48.3518 182.696 47.7855L184.395 47.3843L184.867 45.9212C185.127 45.1188 185.316 44.4344 185.292 44.3872C185.245 44.3636 184.584 44.6468 183.829 45.0244C181.186 46.3223 179.935 46.5819 176.065 46.5583C170.873 46.5347 168.631 45.8976 168.631 44.4108C168.631 43.6557 169.623 41.6498 170.519 40.635C170.921 40.1866 171.227 39.7383 171.227 39.6203C171.227 39.1483 170.331 39.4079 169.434 40.163C167.994 41.3666 164.596 43.9389 163.534 44.6232C160.395 46.6527 156.69 47.8327 154.567 47.4787C153.528 47.3135 151.876 45.8268 151.876 45.0716C151.876 44.0333 152.962 42.3341 154.968 40.2574C156.596 38.5583 157.021 37.992 156.926 37.6144C156.714 36.93 156.171 35.8917 155.935 35.7501C155.841 35.6793 154.614 35.9389 153.221 36.3164C149.894 37.2132 146.685 37.5908 143.735 37.4492C141.021 37.3076 140.101 36.9772 138.897 35.7265C137.977 34.7825 137.363 34.7117 135.924 35.3489C135.05 35.7501 129.552 39.3607 124.738 42.7117C119.971 46.0156 116.195 47.4551 115.133 46.3931C114.331 45.5908 114.637 43.6321 115.888 41.7914C116.407 41.0362 121.528 35.6557 129.693 27.2545C131.581 25.3194 133.257 23.6203 133.398 23.4551C133.682 23.1483 134.602 23.0303 138.543 22.7471C139.581 22.6763 140.974 22.5583 141.611 22.5111C142.909 22.3931 149.257 21.874 156.266 21.3312C158.744 21.1424 161.575 20.93 162.519 20.8592C164.738 20.6704 165.328 20.5524 165.328 20.2692C165.328 20.1276 164.832 20.0805 164.218 20.1512C163.581 20.1984 161.505 20.3164 159.546 20.3872C155.723 20.5288 148.124 20.9064 145.269 21.0952C144.301 21.1424 141.752 21.284 139.605 21.3548L135.735 21.52L137.953 19.2309C139.18 17.9566 140.218 16.8474 140.266 16.7294C140.384 16.4226 139.841 14.6055 139.652 14.6291C139.558 14.6291 137.693 16.163 135.475 18.0274ZM135.853 38.4875C136.089 39.0539 136.466 39.3607 137.245 39.6439C138.543 40.1394 138.543 40.399 137.103 42.2161C134.437 45.6144 130.637 47.5259 128.867 46.3695C128.159 45.8976 128.136 45.4728 128.726 44.222C129.434 42.7117 134.413 37.7796 135.263 37.7324C135.404 37.7324 135.664 38.0863 135.853 38.4875Z" fill="#FDFEFB"/>
<path d="M65.2922 63.5023C65.6226 63.8327 66.4721 65.6262 67.3689 67.8681C68.1949 69.992 68.95 71.7147 69.0208 71.7147C69.0916 71.7147 69.6816 70.2752 70.3188 68.5289C70.9559 66.7589 71.4987 65.3666 71.5459 65.4138C71.5931 65.4374 72.1595 66.9005 72.8202 68.6468C73.481 70.3932 74.0474 71.8327 74.0946 71.8799C74.1182 71.9271 74.8261 70.2516 75.6521 68.1513C76.6904 65.5318 77.3748 64.1395 77.8704 63.6675L78.5783 62.9831H76.9264C75.3925 63.0067 75.3217 63.0303 75.9117 63.3371C76.2657 63.5259 76.596 63.8563 76.6904 64.0451C76.7612 64.2575 76.36 65.6262 75.7937 67.0657C74.7789 69.6616 74.7553 69.6852 74.4957 69.0008C74.3306 68.5996 73.7878 67.1601 73.245 65.7442C72.7022 64.3519 72.2067 63.2191 72.1123 63.2191C72.0415 63.2191 71.4515 64.6586 70.8143 66.405C70.2008 68.1749 69.6108 69.52 69.5164 69.4256C69.1624 69.0244 67.3925 63.8799 67.5341 63.6675C67.6049 63.5259 67.9117 63.3371 68.1949 63.2191C68.5252 63.0775 68.0769 63.0067 66.7081 63.0067L64.7258 62.9831L65.2922 63.5023Z" fill="#FDFEFB"/>
<path d="M82.3541 63.5731C82.9441 64.1395 82.9677 64.2103 82.9677 67.0893C82.9677 70.1572 82.7553 71.2427 82.1418 71.2427C81.953 71.2427 81.7878 71.3371 81.7878 71.4551C81.7878 71.5731 82.6609 71.6675 83.7229 71.6675L85.658 71.6439L85.0208 71.1955L84.3837 70.7235V67.3961C84.3837 65.5554 84.478 63.9271 84.5724 63.7855C84.6668 63.6439 84.95 63.4079 85.2096 63.2663C85.5872 63.0539 85.304 63.0067 83.6993 62.9831H81.717L82.3541 63.5731Z" fill="#FDFEFB"/>
<path d="M89.7171 63.6203L90.425 64.2811L90.2834 67.4197C90.1654 70.3224 90.1182 70.6055 89.6463 71.0067C89.3395 71.2427 89.1035 71.4787 89.1035 71.5495C89.1035 71.6203 89.7879 71.6675 90.6374 71.6439C91.487 71.6439 92.1713 71.5495 92.1713 71.4315C92.1713 71.3371 92.0297 71.2427 91.8409 71.2427C91.1094 71.2427 90.8734 70.4875 90.7554 67.5377C90.6846 65.9566 90.7082 64.6586 90.779 64.6822C90.8498 64.7294 92.3837 66.3342 94.2008 68.2693L97.481 71.8091L97.599 67.8445C97.717 63.9743 97.717 63.8799 98.307 63.4551L98.897 62.9831L97.3631 63.0067C95.8763 63.0067 95.8527 63.0067 96.4663 63.3607C97.2923 63.8091 97.3867 64.2339 97.3159 67.0893L97.2451 69.4256L94.2952 66.2162L91.3454 63.0067L90.1654 62.9831H89.0091L89.7171 63.6203Z" fill="#FDFEFB"/>
<path d="M102.743 63.4078C103.192 63.7618 103.31 64.1158 103.428 65.8385C103.617 68.7412 103.357 71.0303 102.767 71.1719C101.54 71.5022 102.673 71.6674 105.929 71.6202L109.516 71.5966L109.894 70.4167C110.106 69.7559 110.248 69.2132 110.224 69.166C110.201 69.1424 109.729 69.5435 109.186 70.0627C108.242 70.9595 108.053 71.4315 108.974 70.6055C109.398 70.2279 109.564 70.4167 109.21 70.9123C108.974 71.2663 105.646 71.3135 105.245 70.9831C105.009 70.7943 104.915 70.1335 104.915 68.8592C104.915 67.0657 104.938 66.9949 105.457 67.0185C106.496 67.0657 107.156 67.3725 107.44 67.9388C107.699 68.458 107.746 68.3636 107.723 66.9949C107.723 66.1453 107.652 65.6261 107.581 65.8149C107.369 66.4285 106.732 66.7589 105.811 66.7589H104.915V65.225C104.915 63.9742 104.985 63.6674 105.363 63.455C106.566 62.8179 108.761 63.573 109.068 64.753C109.328 65.7441 109.54 65.4137 109.398 64.2102L109.28 63.1011L105.741 63.0539C102.319 62.9831 102.224 63.0067 102.743 63.4078Z" fill="#FDFEFB"/>
<path d="M114.566 63.3136C114.236 63.526 113.811 63.998 113.646 64.3992C113.387 65.0364 113.387 65.2724 113.741 65.9567C114.047 66.6175 114.448 66.9479 115.652 67.4906C116.502 67.8682 117.398 68.3874 117.658 68.647C118.696 69.6853 117.918 71.4788 116.478 71.4788C115.392 71.4788 114.519 70.9361 113.906 69.8269C113.623 69.2842 113.339 68.883 113.316 68.9302C113.292 68.9774 113.292 69.4965 113.363 70.1101L113.457 71.2193L114.779 71.5968C116.478 72.0924 117.516 71.9036 118.531 70.8889C119.121 70.2989 119.31 69.8977 119.31 69.2606C119.31 67.9626 118.791 67.4198 116.69 66.4051C114.802 65.5083 114.26 64.942 114.543 64.1632C114.732 63.5732 115.345 63.2193 116.124 63.2193C117.044 63.2193 117.823 63.762 118.248 64.706L118.602 65.4611L118.46 64.3992C118.366 63.8092 118.295 63.3136 118.248 63.2664C118.224 63.2429 117.516 63.1485 116.69 63.0777C115.605 63.0069 115.015 63.0777 114.566 63.3136Z" fill="#FDFEFB"/>
</svg>
